<mxfile host="app.diagrams.net" modified="2023-04-24T18:10:01.119Z" agent="Mozilla/5.0 (Macintosh; Intel Mac OS X 10_15_7) AppleWebKit/537.36 (KHTML, like Gecko) Chrome/112.0.0.0 Safari/537.36" version="21.2.0" etag="eC8Sq0S_5zqDEm5wD8gb" type="github">
  <diagram name="Page-1" id="74h5eq18-0JXJP73Q0yJ">
    <mxGraphModel>
      <root>
        <mxCell id="0" />
        <mxCell id="1" parent="0" />
      </root>
    </mxGraphModel>
  </diagram>
</mxfile>
